<svg width="48" height="49" viewBox="0 0 48 49" fill="none" xmlns="http://www.w3.org/2000/svg">
<g opacity="0.5">
<path d="M19.8739 31.03C19.6953 30.3379 19.3346 29.7062 18.8291 29.2008C18.3237 28.6954 17.692 28.3346 16.9999 28.156L4.72988 24.992C4.52054 24.9326 4.3363 24.8065 4.2051 24.6329C4.07391 24.4593 4.00293 24.2476 4.00293 24.03C4.00293 23.8124 4.07391 23.6008 4.2051 23.4271C4.3363 23.2535 4.52054 23.1275 4.72988 23.068L16.9999 19.902C17.6918 19.7237 18.3233 19.3632 18.8287 18.8581C19.3341 18.353 19.695 17.7218 19.8739 17.03L23.0379 4.76004C23.0967 4.54988 23.2226 4.36472 23.3965 4.23283C23.5704 4.10093 23.7826 4.02954 24.0009 4.02954C24.2191 4.02954 24.4314 4.10093 24.6052 4.23283C24.7791 4.36472 24.9051 4.54988 24.9639 4.76004L28.1259 17.03C28.3044 17.7222 28.6652 18.3538 29.1706 18.8593C29.6761 19.3647 30.3077 19.7255 30.9999 19.904L43.2699 23.066C43.4809 23.1242 43.667 23.2501 43.7996 23.4242C43.9322 23.5983 44.004 23.8112 44.004 24.03C44.004 24.2489 43.9322 24.4618 43.7996 24.6359C43.667 24.81 43.4809 24.9358 43.2699 24.994L30.9999 28.156C30.3077 28.3346 29.6761 28.6954 29.1706 29.2008C28.6652 29.7062 28.3044 30.3379 28.1259 31.03L24.9619 43.3C24.9031 43.5102 24.7771 43.6954 24.6032 43.8273C24.4294 43.9591 24.2171 44.0305 23.9989 44.0305C23.7806 44.0305 23.5684 43.9591 23.3945 43.8273C23.2206 43.6954 23.0947 43.5102 23.0359 43.3L19.8739 31.03Z" stroke="#C87F65" stroke-width="4" stroke-linecap="round" stroke-linejoin="round"/>
<path d="M40 6.03003V14.03" stroke="#C87F65" stroke-width="4" stroke-linecap="round" stroke-linejoin="round"/>
<path d="M44 10.03H36" stroke="#C87F65" stroke-width="4" stroke-linecap="round" stroke-linejoin="round"/>
<path d="M8 34.03V38.03" stroke="#C87F65" stroke-width="4" stroke-linecap="round" stroke-linejoin="round"/>
<path d="M10 36.03H6" stroke="#C87F65" stroke-width="4" stroke-linecap="round" stroke-linejoin="round"/>
</g>
</svg>
