<svg width="17" height="17" viewBox="0 0 17 17" fill="none" xmlns="http://www.w3.org/2000/svg">
<g opacity="0.8">
<path d="M11.3442 1.58252H4.67757C2.83662 1.58252 1.34424 3.0749 1.34424 4.91585V11.5825C1.34424 13.4235 2.83662 14.9159 4.67757 14.9159H11.3442C13.1852 14.9159 14.6776 13.4235 14.6776 11.5825V4.91585C14.6776 3.0749 13.1852 1.58252 11.3442 1.58252Z" stroke="#C9BFB7" stroke-width="1.33333" stroke-linecap="round" stroke-linejoin="round"/>
<path d="M10.6775 7.82922C10.7598 8.38406 10.665 8.9507 10.4067 9.44857C10.1484 9.94643 9.73964 10.3502 9.23862 10.6023C8.73761 10.8545 8.16984 10.9423 7.61606 10.8532C7.06229 10.7641 6.55071 10.5026 6.1541 10.106C5.75748 9.70938 5.49603 9.19781 5.40692 8.64403C5.31781 8.09026 5.40558 7.52249 5.65776 7.02147C5.90993 6.52046 6.31366 6.11172 6.81153 5.85339C7.30939 5.59505 7.87604 5.50028 8.43087 5.58256C8.99682 5.66648 9.52077 5.9302 9.92534 6.33476C10.3299 6.73932 10.5936 7.26328 10.6775 7.82922Z" stroke="#C9BFB7" stroke-width="1.33333" stroke-linecap="round" stroke-linejoin="round"/>
<path d="M11.6777 4.58252H11.6844" stroke="#C9BFB7" stroke-width="1.33333" stroke-linecap="round" stroke-linejoin="round"/>
</g>
</svg>
