<svg width="48" height="49" viewBox="0 0 48 49" fill="none" xmlns="http://www.w3.org/2000/svg">
<g opacity="0.5">
<path d="M24 6.03003C21.6131 8.41698 20.2721 11.6544 20.2721 15.03C20.2721 18.4057 21.6131 21.6431 24 24.03C26.387 26.417 29.6244 27.758 33 27.758C36.3757 27.758 39.6131 26.417 42 24.03C42 27.5901 40.9443 31.0702 38.9665 34.0303C36.9886 36.9904 34.1774 39.2975 30.8883 40.6599C27.5992 42.0222 23.98 42.3787 20.4884 41.6842C16.9967 40.9896 13.7894 39.2753 11.2721 36.7579C8.75474 34.2406 7.04041 31.0333 6.34587 27.5417C5.65134 24.05 6.0078 20.4308 7.37018 17.1417C8.73255 13.8527 11.0397 11.0414 13.9997 9.06358C16.9598 7.08571 20.4399 6.03003 24 6.03003Z" stroke="#1D3C58" stroke-width="4" stroke-linecap="round" stroke-linejoin="round"/>
</g>
</svg>
