<svg width="21" height="20" viewBox="0 0 21 20" fill="none" xmlns="http://www.w3.org/2000/svg">
<path d="M14.1776 1.66553H5.84428C3.54309 1.66553 1.67761 3.53101 1.67761 5.83219V14.1655C1.67761 16.4667 3.54309 18.3322 5.84428 18.3322H14.1776C16.4788 18.3322 18.3443 16.4667 18.3443 14.1655V5.83219C18.3443 3.53101 16.4788 1.66553 14.1776 1.66553Z" stroke="#C9BFB7" stroke-width="1.66667" stroke-linecap="round" stroke-linejoin="round"/>
<path d="M13.3444 9.47379C13.4472 10.1673 13.3287 10.8756 13.0058 11.498C12.6829 12.1203 12.172 12.625 11.5457 12.9402C10.9194 13.2554 10.2097 13.3651 9.51752 13.2537C8.8253 13.1423 8.18583 12.8155 7.69006 12.3198C7.19429 11.824 6.86747 11.1845 6.75608 10.4923C6.6447 9.80008 6.75441 9.09036 7.06963 8.4641C7.38485 7.83783 7.88952 7.3269 8.51185 7.00399C9.13418 6.68107 9.84249 6.56261 10.536 6.66545C11.2435 6.77036 11.8984 7.10001 12.4041 7.60571C12.9098 8.11141 13.2395 8.76635 13.3444 9.47379Z" stroke="#C9BFB7" stroke-width="1.66667" stroke-linecap="round" stroke-linejoin="round"/>
<path d="M14.5944 5.41553H14.6027" stroke="#C9BFB7" stroke-width="1.66667" stroke-linecap="round" stroke-linejoin="round"/>
</svg>
