<svg width="25" height="24" viewBox="0 0 25 24" fill="none" xmlns="http://www.w3.org/2000/svg">
<path d="M11.0217 19.9973C9.26577 20.0026 7.57196 19.3478 6.27622 18.1627C4.98049 16.9776 4.17747 15.3489 4.02644 13.5994C3.87541 11.85 4.3874 10.1077 5.46086 8.71806C6.53432 7.32844 8.09084 6.39301 9.82171 6.09731C15.5217 4.99731 17.0217 4.47731 19.0217 1.99731C20.0217 3.99731 21.0217 6.17731 21.0217 9.99731C21.0217 15.4973 16.2417 19.9973 11.0217 19.9973Z" stroke="#1D3C58" stroke-width="2" stroke-linecap="round" stroke-linejoin="round"/>
<path d="M2.02173 20.9973C2.02173 17.9973 3.87173 15.6373 7.10173 14.9973C9.52173 14.5173 12.0217 12.9973 13.0217 11.9973" stroke="#1D3C58" stroke-width="2" stroke-linecap="round" stroke-linejoin="round"/>
</svg>
