<svg width="17" height="16" viewBox="0 0 17 16" fill="none" xmlns="http://www.w3.org/2000/svg">
<g opacity="0.8">
<path d="M13.3444 6.66585C13.3444 9.99452 9.65173 13.4612 8.41173 14.5319C8.29622 14.6187 8.1556 14.6657 8.01107 14.6657C7.86654 14.6657 7.72592 14.6187 7.6104 14.5319C6.3704 13.4612 2.67773 9.99452 2.67773 6.66585C2.67773 5.25136 3.23964 3.89481 4.23983 2.89462C5.24003 1.89442 6.59658 1.33252 8.01107 1.33252C9.42556 1.33252 10.7821 1.89442 11.7823 2.89462C12.7825 3.89481 13.3444 5.25136 13.3444 6.66585Z" stroke="#C9BFB7" stroke-width="1.33333" stroke-linecap="round" stroke-linejoin="round"/>
<path d="M8.01099 8.66553C9.11556 8.66553 10.011 7.7701 10.011 6.66553C10.011 5.56096 9.11556 4.66553 8.01099 4.66553C6.90642 4.66553 6.01099 5.56096 6.01099 6.66553C6.01099 7.7701 6.90642 8.66553 8.01099 8.66553Z" stroke="#C9BFB7" stroke-width="1.33333" stroke-linecap="round" stroke-linejoin="round"/>
</g>
</svg>
