<svg width="49" height="48" viewBox="0 0 49 48" fill="none" xmlns="http://www.w3.org/2000/svg">
<g opacity="0.5">
<path d="M24.011 29.999C27.3247 29.999 30.011 27.3127 30.011 23.999C30.011 20.6853 27.3247 17.999 24.011 17.999C20.6973 17.999 18.011 20.6853 18.011 23.999C18.011 27.3127 20.6973 29.999 24.011 29.999Z" stroke="#C87F65" stroke-width="4" stroke-linecap="round" stroke-linejoin="round"/>
<path d="M24.011 32.999C24.011 34.7791 23.4831 36.5191 22.4942 37.9992C21.5053 39.4792 20.0997 40.6328 18.4551 41.3139C16.8106 41.9951 15.001 42.1734 13.2552 41.8261C11.5093 41.4788 9.9057 40.6217 8.64703 39.363C7.38836 38.1043 6.53119 36.5007 6.18392 34.7548C5.83666 33.009 6.01489 31.1994 6.69607 29.5549C7.37726 27.9103 8.53082 26.5047 10.0109 25.5158C11.4909 24.5269 13.231 23.999 15.011 23.999C13.231 23.999 11.4909 23.4712 10.0109 22.4823C8.53082 21.4933 7.37726 20.0877 6.69607 18.4432C6.01489 16.7986 5.83666 14.989 6.18392 13.2432C6.53119 11.4974 7.38836 9.89374 8.64703 8.63507C9.9057 7.37639 11.5093 6.51923 13.2552 6.17196C15.001 5.82469 16.8106 6.00292 18.4551 6.68411C20.0997 7.3653 21.5053 8.51885 22.4942 9.99889C23.4831 11.4789 24.011 13.219 24.011 14.999C24.011 13.219 24.5388 11.4789 25.5278 9.99889C26.5167 8.51885 27.9223 7.3653 29.5668 6.68411C31.2114 6.00292 33.021 5.82469 34.7668 6.17196C36.5126 6.51923 38.1163 7.37639 39.375 8.63507C40.6336 9.89374 41.4908 11.4974 41.8381 13.2432C42.1853 14.989 42.0071 16.7986 41.3259 18.4432C40.6447 20.0877 39.4912 21.4933 38.0111 22.4823C36.5311 23.4712 34.791 23.999 33.011 23.999C34.791 23.999 36.5311 24.5269 38.0111 25.5158C39.4912 26.5047 40.6447 27.9103 41.3259 29.5549C42.0071 31.1994 42.1853 33.009 41.8381 34.7548C41.4908 36.5007 40.6336 38.1043 39.375 39.363C38.1163 40.6217 36.5126 41.4788 34.7668 41.8261C33.021 42.1734 31.2114 41.9951 29.5668 41.3139C27.9223 40.6328 26.5167 39.4792 25.5278 37.9992C24.5388 36.5191 24.011 34.7791 24.011 32.999Z" stroke="#C87F65" stroke-width="4" stroke-linecap="round" stroke-linejoin="round"/>
<path d="M24.011 14.999V17.999" stroke="#C87F65" stroke-width="4" stroke-linecap="round" stroke-linejoin="round"/>
<path d="M15.011 23.999H18.011" stroke="#C87F65" stroke-width="4" stroke-linecap="round" stroke-linejoin="round"/>
<path d="M33.011 23.999H30.011" stroke="#C87F65" stroke-width="4" stroke-linecap="round" stroke-linejoin="round"/>
<path d="M24.011 32.999V29.999" stroke="#C87F65" stroke-width="4" stroke-linecap="round" stroke-linejoin="round"/>
<path d="M16.011 15.999L19.771 19.759" stroke="#C87F65" stroke-width="4" stroke-linecap="round" stroke-linejoin="round"/>
<path d="M28.251 19.759L32.011 15.999" stroke="#C87F65" stroke-width="4" stroke-linecap="round" stroke-linejoin="round"/>
<path d="M16.011 31.9993L19.771 28.2393" stroke="#C87F65" stroke-width="4" stroke-linecap="round" stroke-linejoin="round"/>
<path d="M28.251 28.2393L32.011 31.9993" stroke="#C87F65" stroke-width="4" stroke-linecap="round" stroke-linejoin="round"/>
</g>
</svg>
