<svg width="49" height="48" viewBox="0 0 49 48" fill="none" xmlns="http://www.w3.org/2000/svg">
<g opacity="0.5">
<path d="M24.011 5.99902C21.624 8.38597 20.2831 11.6234 20.2831 14.999C20.2831 18.3747 21.624 21.6121 24.011 23.999C26.3979 26.386 29.6353 27.7269 33.011 27.7269C36.3866 27.7269 39.624 26.386 42.011 23.999C42.011 27.5591 40.9553 31.0392 38.9774 33.9993C36.9996 36.9594 34.1884 39.2665 30.8993 40.6289C27.6102 41.9912 23.991 42.3477 20.4994 41.6532C17.0077 40.9586 13.8004 39.2443 11.2831 36.7269C8.76573 34.2096 7.05139 31.0023 6.35686 27.5106C5.66233 24.019 6.01879 20.3998 7.38116 17.1107C8.74354 13.8217 11.0506 11.0104 14.0107 9.03257C16.9708 7.05471 20.4509 5.99902 24.011 5.99902Z" stroke="#1D3C58" stroke-width="4" stroke-linecap="round" stroke-linejoin="round"/>
</g>
</svg>
