<svg width="25" height="24" viewBox="0 0 25 24" fill="none" xmlns="http://www.w3.org/2000/svg">
<path d="M15.4987 12.8873L17.0137 21.4133C17.0307 21.5137 17.0166 21.6169 16.9733 21.7091C16.9301 21.8013 16.8597 21.878 16.7717 21.9291C16.6836 21.9802 16.582 22.0032 16.4805 21.995C16.379 21.9869 16.2825 21.9479 16.2037 21.8833L12.6237 19.1963C12.4509 19.0672 12.241 18.9975 12.0252 18.9975C11.8095 18.9975 11.5995 19.0672 11.4267 19.1963L7.84072 21.8823C7.76204 21.9468 7.66559 21.9857 7.56422 21.9939C7.46285 22.0021 7.3614 21.9792 7.27339 21.9282C7.18538 21.8772 7.115 21.8007 7.07164 21.7087C7.02829 21.6167 7.01401 21.5136 7.03072 21.4133L8.54472 12.8873" stroke="#1D3C58" stroke-width="2" stroke-linecap="round" stroke-linejoin="round"/>
<path d="M12.0217 13.9973C15.3354 13.9973 18.0217 11.311 18.0217 7.99731C18.0217 4.68361 15.3354 1.99731 12.0217 1.99731C8.70802 1.99731 6.02173 4.68361 6.02173 7.99731C6.02173 11.311 8.70802 13.9973 12.0217 13.9973Z" stroke="#1D3C58" stroke-width="2" stroke-linecap="round" stroke-linejoin="round"/>
</svg>
