<svg width="49" height="48" viewBox="0 0 49 48" fill="none" xmlns="http://www.w3.org/2000/svg">
<g opacity="0.5">
<path d="M19.8849 30.999C19.7063 30.3069 19.3455 29.6752 18.8401 29.1698C18.3347 28.6644 17.703 28.3036 17.0109 28.125L4.74087 24.961C4.53153 24.9016 4.34728 24.7755 4.21609 24.6019C4.0849 24.4283 4.01392 24.2166 4.01392 23.999C4.01392 23.7814 4.0849 23.5698 4.21609 23.3961C4.34728 23.2225 4.53153 23.0965 4.74087 23.037L17.0109 19.871C17.7028 19.6926 18.3342 19.3322 18.8397 18.8271C19.3451 18.322 19.706 17.6908 19.8849 16.999L23.0489 4.72903C23.1077 4.51887 23.2336 4.33372 23.4075 4.20182C23.5814 4.06993 23.7936 3.99854 24.0119 3.99854C24.2301 3.99854 24.4424 4.06993 24.6162 4.20182C24.7901 4.33372 24.9161 4.51887 24.9749 4.72903L28.1369 16.999C28.3154 17.6912 28.6762 18.3228 29.1816 18.8283C29.6871 19.3337 30.3187 19.6945 31.0109 19.873L43.2809 23.035C43.4919 23.0932 43.6779 23.2191 43.8105 23.3932C43.9432 23.5673 44.015 23.7802 44.015 23.999C44.015 24.2179 43.9432 24.4307 43.8105 24.6049C43.6779 24.779 43.4919 24.9048 43.2809 24.963L31.0109 28.125C30.3187 28.3036 29.6871 28.6644 29.1816 29.1698C28.6762 29.6752 28.3154 30.3069 28.1369 30.999L24.9729 43.269C24.9141 43.4792 24.7881 43.6644 24.6142 43.7962C24.4404 43.9281 24.2281 43.9995 24.0099 43.9995C23.7916 43.9995 23.5794 43.9281 23.4055 43.7962C23.2316 43.6644 23.1057 43.4792 23.0469 43.269L19.8849 30.999Z" stroke="#C87F65" stroke-width="4" stroke-linecap="round" stroke-linejoin="round"/>
<path d="M40.011 5.99902V13.999" stroke="#C87F65" stroke-width="4" stroke-linecap="round" stroke-linejoin="round"/>
<path d="M44.011 9.99902H36.011" stroke="#C87F65" stroke-width="4" stroke-linecap="round" stroke-linejoin="round"/>
<path d="M8.01099 33.999V37.999" stroke="#C87F65" stroke-width="4" stroke-linecap="round" stroke-linejoin="round"/>
<path d="M10.011 35.999H6.01099" stroke="#C87F65" stroke-width="4" stroke-linecap="round" stroke-linejoin="round"/>
</g>
</svg>
